<mxfile host="app.diagrams.net" agent="Mozilla/5.0 (Macintosh; Intel Mac OS X 10_15_7) AppleWebKit/605.1.15 (KHTML, like Gecko) Version/16.6 Safari/605.1.15" version="24.7.12">
  <diagram name="第 1 页" id="uewSO2GS0F2uthHJbvoH">
    <mxGraphModel dx="946" dy="845" grid="1" gridSize="10" guides="1" tooltips="1" connect="1" arrows="1" fold="1" page="1" pageScale="1" pageWidth="827" pageHeight="1169" math="0" shadow="0">
      <root>
        <mxCell id="0" />
        <mxCell id="1" parent="0" />
        <mxCell id="E3qPsHUzpoPvtIXYSHTW-1" value="数据监管方" style="shape=umlActor;verticalLabelPosition=bottom;verticalAlign=top;html=1;" vertex="1" parent="1">
          <mxGeometry x="373" y="29" width="30" height="60" as="geometry" />
        </mxCell>
        <mxCell id="E3qPsHUzpoPvtIXYSHTW-2" value="数据提供方" style="shape=umlActor;verticalLabelPosition=bottom;verticalAlign=top;html=1;" vertex="1" parent="1">
          <mxGeometry x="80" y="260" width="30" height="60" as="geometry" />
        </mxCell>
        <mxCell id="E3qPsHUzpoPvtIXYSHTW-3" value="数据需求方" style="shape=umlActor;verticalLabelPosition=bottom;verticalAlign=top;html=1;" vertex="1" parent="1">
          <mxGeometry x="684" y="260" width="30" height="60" as="geometry" />
        </mxCell>
        <mxCell id="E3qPsHUzpoPvtIXYSHTW-4" value="" style="rounded=0;whiteSpace=wrap;html=1;" vertex="1" parent="1">
          <mxGeometry x="230" y="190" width="330" height="260" as="geometry" />
        </mxCell>
        <mxCell id="E3qPsHUzpoPvtIXYSHTW-10" value="" style="endArrow=none;html=1;rounded=0;" edge="1" parent="1">
          <mxGeometry width="50" height="50" relative="1" as="geometry">
            <mxPoint x="120" y="290" as="sourcePoint" />
            <mxPoint x="230" y="290" as="targetPoint" />
          </mxGeometry>
        </mxCell>
        <mxCell id="E3qPsHUzpoPvtIXYSHTW-11" value="" style="endArrow=classic;html=1;rounded=0;" edge="1" parent="1">
          <mxGeometry width="50" height="50" relative="1" as="geometry">
            <mxPoint x="140" y="270" as="sourcePoint" />
            <mxPoint x="210" y="270" as="targetPoint" />
          </mxGeometry>
        </mxCell>
        <mxCell id="E3qPsHUzpoPvtIXYSHTW-12" value="" style="endArrow=classic;html=1;rounded=0;" edge="1" parent="1">
          <mxGeometry width="50" height="50" relative="1" as="geometry">
            <mxPoint x="210" y="320" as="sourcePoint" />
            <mxPoint x="140" y="320" as="targetPoint" />
          </mxGeometry>
        </mxCell>
        <mxCell id="E3qPsHUzpoPvtIXYSHTW-13" value="" style="endArrow=none;html=1;rounded=0;exitX=0.479;exitY=-0.004;exitDx=0;exitDy=0;exitPerimeter=0;" edge="1" parent="1" source="E3qPsHUzpoPvtIXYSHTW-4">
          <mxGeometry width="50" height="50" relative="1" as="geometry">
            <mxPoint x="337" y="170" as="sourcePoint" />
            <mxPoint x="388" y="120" as="targetPoint" />
          </mxGeometry>
        </mxCell>
        <mxCell id="E3qPsHUzpoPvtIXYSHTW-14" value="" style="endArrow=classic;html=1;rounded=0;" edge="1" parent="1">
          <mxGeometry width="50" height="50" relative="1" as="geometry">
            <mxPoint x="405" y="126" as="sourcePoint" />
            <mxPoint x="405" y="176" as="targetPoint" />
          </mxGeometry>
        </mxCell>
        <mxCell id="E3qPsHUzpoPvtIXYSHTW-15" value="" style="edgeStyle=segmentEdgeStyle;endArrow=classic;html=1;curved=0;rounded=0;endSize=8;startSize=8;" edge="1" parent="1">
          <mxGeometry width="50" height="50" relative="1" as="geometry">
            <mxPoint x="730" y="310" as="sourcePoint" />
            <mxPoint x="730" y="270" as="targetPoint" />
            <Array as="points">
              <mxPoint x="790" y="310" />
              <mxPoint x="790" y="270" />
            </Array>
          </mxGeometry>
        </mxCell>
        <mxCell id="E3qPsHUzpoPvtIXYSHTW-16" value="" style="endArrow=none;html=1;rounded=0;" edge="1" parent="1">
          <mxGeometry width="50" height="50" relative="1" as="geometry">
            <mxPoint x="560" y="289.5" as="sourcePoint" />
            <mxPoint x="670" y="289.5" as="targetPoint" />
          </mxGeometry>
        </mxCell>
        <mxCell id="E3qPsHUzpoPvtIXYSHTW-17" value="" style="endArrow=classic;html=1;rounded=0;" edge="1" parent="1">
          <mxGeometry width="50" height="50" relative="1" as="geometry">
            <mxPoint x="580" y="270" as="sourcePoint" />
            <mxPoint x="650" y="270" as="targetPoint" />
          </mxGeometry>
        </mxCell>
        <mxCell id="E3qPsHUzpoPvtIXYSHTW-18" value="" style="endArrow=classic;html=1;rounded=0;" edge="1" parent="1">
          <mxGeometry width="50" height="50" relative="1" as="geometry">
            <mxPoint x="650" y="319" as="sourcePoint" />
            <mxPoint x="580" y="319" as="targetPoint" />
          </mxGeometry>
        </mxCell>
        <mxCell id="E3qPsHUzpoPvtIXYSHTW-24" value="&lt;span style=&quot;white-space: normal; color: rgb(50, 50, 50); font-family: &amp;quot;Microsoft YaHei&amp;quot;, 微软雅黑, Arial; font-size: 13px; font-variant-ligatures: normal; orphans: 2; widows: 2; background-color: rgba(255, 255, 255, 0.01); text-decoration-thickness: initial; text-decoration-style: initial; text-decoration-color: initial;&quot;&gt;数据监管&lt;/span&gt;" style="text;html=1;align=center;verticalAlign=middle;resizable=0;points=[];autosize=1;strokeColor=none;fillColor=none;" vertex="1" parent="1">
          <mxGeometry x="390" y="128" width="80" height="30" as="geometry" />
        </mxCell>
        <mxCell id="E3qPsHUzpoPvtIXYSHTW-28" value="数据收益分成" style="text;html=1;align=center;verticalAlign=middle;resizable=0;points=[];autosize=1;strokeColor=none;fillColor=none;" vertex="1" parent="1">
          <mxGeometry x="120" y="340" width="100" height="30" as="geometry" />
        </mxCell>
        <mxCell id="E3qPsHUzpoPvtIXYSHTW-29" value="数据托管汇聚" style="text;html=1;align=center;verticalAlign=middle;resizable=0;points=[];autosize=1;strokeColor=none;fillColor=none;" vertex="1" parent="1">
          <mxGeometry x="120" y="230" width="100" height="30" as="geometry" />
        </mxCell>
        <mxCell id="E3qPsHUzpoPvtIXYSHTW-31" value="数据收益分成" style="text;html=1;align=center;verticalAlign=middle;resizable=0;points=[];autosize=1;strokeColor=none;fillColor=none;" vertex="1" parent="1">
          <mxGeometry x="570" y="330" width="100" height="30" as="geometry" />
        </mxCell>
        <mxCell id="E3qPsHUzpoPvtIXYSHTW-32" value="数据&lt;div&gt;使用&lt;/div&gt;" style="text;html=1;align=center;verticalAlign=middle;resizable=0;points=[];autosize=1;strokeColor=none;fillColor=none;" vertex="1" parent="1">
          <mxGeometry x="790" y="270" width="50" height="40" as="geometry" />
        </mxCell>
        <mxCell id="E3qPsHUzpoPvtIXYSHTW-33" value="注册/目录/&lt;div&gt;授权/访问/&lt;/div&gt;&lt;div&gt;定价服务&lt;/div&gt;" style="text;html=1;align=center;verticalAlign=middle;resizable=0;points=[];autosize=1;strokeColor=none;fillColor=none;" vertex="1" parent="1">
          <mxGeometry x="570" y="210" width="80" height="60" as="geometry" />
        </mxCell>
        <mxCell id="E3qPsHUzpoPvtIXYSHTW-39" style="edgeStyle=orthogonalEdgeStyle;rounded=0;orthogonalLoop=1;jettySize=auto;html=1;exitX=0.5;exitY=1;exitDx=0;exitDy=0;entryX=0.5;entryY=0;entryDx=0;entryDy=0;" edge="1" parent="1" source="E3qPsHUzpoPvtIXYSHTW-35" target="E3qPsHUzpoPvtIXYSHTW-36">
          <mxGeometry relative="1" as="geometry" />
        </mxCell>
        <mxCell id="E3qPsHUzpoPvtIXYSHTW-42" style="edgeStyle=orthogonalEdgeStyle;rounded=0;orthogonalLoop=1;jettySize=auto;html=1;exitX=1;exitY=0.5;exitDx=0;exitDy=0;entryX=1;entryY=0.5;entryDx=0;entryDy=0;endArrow=none;endFill=0;" edge="1" parent="1" source="E3qPsHUzpoPvtIXYSHTW-35" target="E3qPsHUzpoPvtIXYSHTW-37">
          <mxGeometry relative="1" as="geometry" />
        </mxCell>
        <mxCell id="E3qPsHUzpoPvtIXYSHTW-35" value="数据治理" style="rounded=0;whiteSpace=wrap;html=1;" vertex="1" parent="1">
          <mxGeometry x="283" y="230" width="87" height="40" as="geometry" />
        </mxCell>
        <mxCell id="E3qPsHUzpoPvtIXYSHTW-40" style="edgeStyle=orthogonalEdgeStyle;rounded=0;orthogonalLoop=1;jettySize=auto;html=1;exitX=0.5;exitY=1;exitDx=0;exitDy=0;" edge="1" parent="1" source="E3qPsHUzpoPvtIXYSHTW-36" target="E3qPsHUzpoPvtIXYSHTW-37">
          <mxGeometry relative="1" as="geometry" />
        </mxCell>
        <mxCell id="E3qPsHUzpoPvtIXYSHTW-41" style="edgeStyle=orthogonalEdgeStyle;rounded=0;orthogonalLoop=1;jettySize=auto;html=1;exitX=1;exitY=0.5;exitDx=0;exitDy=0;" edge="1" parent="1" source="E3qPsHUzpoPvtIXYSHTW-36" target="E3qPsHUzpoPvtIXYSHTW-38">
          <mxGeometry relative="1" as="geometry" />
        </mxCell>
        <mxCell id="E3qPsHUzpoPvtIXYSHTW-36" value="数据资产化&lt;div&gt;管理&lt;/div&gt;" style="rounded=0;whiteSpace=wrap;html=1;" vertex="1" parent="1">
          <mxGeometry x="283" y="310" width="87" height="40" as="geometry" />
        </mxCell>
        <mxCell id="E3qPsHUzpoPvtIXYSHTW-37" value="数据收益分成" style="rounded=0;whiteSpace=wrap;html=1;" vertex="1" parent="1">
          <mxGeometry x="283" y="390" width="87" height="40" as="geometry" />
        </mxCell>
        <mxCell id="E3qPsHUzpoPvtIXYSHTW-38" value="数据服务" style="rounded=0;whiteSpace=wrap;html=1;" vertex="1" parent="1">
          <mxGeometry x="430" y="310" width="87" height="40" as="geometry" />
        </mxCell>
      </root>
    </mxGraphModel>
  </diagram>
</mxfile>
